# xmcd
# Copyright (C) 1995-1998 Ti Kan
#
# Track frame offsets:
#       150
#       21169
#       37359
#       55074
#       66281
#       87333
#       108899
#       126494
#       143729
#       163133
#
# Disc length: 2289 seconds
#
# Revision: 0
# Processed by: cddbd v1.5.2PL0 Copyright (c) Steve Scherf et al.
# Submitted via: CD-Import v1.0
#
DISCID=9008ef0a
DTITLE=Pj Harvey and John Parish - A Woman A Man Walked By
DYEAR=2009
DGENRE=
TTITLE0=Black Hearted Love
TTITLE1=Sixteen, Fifteen, Fourteen
TTITLE2=Leaving California
TTITLE3=The Chair
TTITLE4=April
TTITLE5=A Woman A Man Walked By
TTITLE6=The Soldier
TTITLE7=Pig Will Not
TTITLE8=Passionless, Pointless
TTITLE9=Cracks In The Canvas
EXTD=
EXTT0=
EXTT1=
EXTT2=
EXTT3=
EXTT4=
EXTT5=
EXTT6=
EXTT7=
EXTT8=
EXTT9=
PLAYORDER=
